# xmcd
#
# Track frame offsets:
#	150
#	19379
#	35667
#	52582
#	70988
#	84909
#	103595
#	119940
#	136563
#	156738
#	171341
#	188201
#	205492
#	224789
#	241412
#	257757
#	274004
#	295531
#	316946
#	337595
#
# Disc length: 4728 seconds
#
# Revision: 0
# Processed by: cddbd v1.5.2PL0 Copyright (c) Steve Scherf et al.
# Submitted via: EZCDAudioConverter 2.4.0.1
#
DISCID=2d127614
DTITLE=Vários - Sertanejo Românticos - 001
DYEAR=2004
DGENRE=Sertanejo
TTITLE0=Ataíde and Alexandre - Laço Aberto
TTITLE1=Hugo and Thiago - Apaixonado (Imbranato)
TTITLE2=Leonardo - A Desconhecida
TTITLE3=Matogrosso and Mathias - De Igual Pra Igual
TTITLE4=Daniel - Jogado Na Rua
TTITLE5=Rick and Renner - Eu Mereço
TTITLE6=Gian and Giovani - Onde Andaras
TTITLE7=Bruno and Marrone - Te Amar Foi Ilusão (Ao Vivo)
TTITLE8=Marlon and Maicon - Por Te Amar Assim
TTITLE9=Cezar and Paulinho - Você É Tudo Que Pedi Pra Deus
TTITLE10=Chitãozinho and Xororó - Feito Eu
TTITLE11=Leandro and Leonardo - Salva Minha Vida
TTITLE12=Guilherme and Santiago - Só Falta Você
TTITLE13=Milionário and José Rico - Tribunal Do Amor
TTITLE14=Chrystian and Ralf - Eu Quero Seu Amor
TTITLE15=Leonardo - Fantasia
TTITLE16=Bruno and Marrone - Por Um Minuto (Ao Vivo)
TTITLE17=Chitãozinho and Xororó Feat. Zé Ramalho - Sinônimos
TTITLE18=Daniel - Os Amantes
TTITLE19=Zezé Di Camargo and Luciano - Toma Juizo
EXTD=
EXTT0=
EXTT1=
EXTT2=
EXTT3=
EXTT4=
EXTT5=
EXTT6=
EXTT7=
EXTT8=
EXTT9=
EXTT10=
EXTT11=
EXTT12=
EXTT13=
EXTT14=
EXTT15=
EXTT16=
EXTT17=
EXTT18=
EXTT19=
PLAYORDER=
